<svg width="420" height="51" viewBox="0 0 420 51" fill="none" xmlns="http://www.w3.org/2000/svg">
<g filter="url(#filter0_d)">
<rect x="4" width="412" height="42" rx="21" fill="#FC7EEF"/>
<path d="M31.6992 26.6836L30.416 22.6406H26.9883L25.7227 26.6836H23.5957L27.0059 16.084C27.1934 15.498 27.2637 15.1699 27.2168 15.0996C27.1816 15.0176 27.1055 14.9648 26.9883 14.9414C26.7305 14.8711 26.543 14.7949 26.4258 14.7129C26.3086 14.6191 26.25 14.4668 26.25 14.2559C26.25 13.9043 26.4844 13.7285 26.9531 13.7285H29.748L34.0371 26.6836H31.6992ZM29.9238 21.1289L28.6758 17.209L27.4629 21.1289H29.9238ZM42.0527 26.6836H39.873V15.4863C39.873 15.1348 39.8438 14.9004 39.7852 14.7832C39.7266 14.6543 39.6562 14.5723 39.5742 14.5371C39.3867 14.4668 39.2402 14.3965 39.1348 14.3262C39.0293 14.2559 38.9766 14.1211 38.9766 13.9219C38.9766 13.5234 39.2227 13.3242 39.7148 13.3242H41.2969C41.8008 13.3242 42.0527 13.5176 42.0527 13.9043V18.4395C42.1816 18.2988 42.334 18.1641 42.5098 18.0352C43.0957 17.5664 43.752 17.332 44.4785 17.332C45.3223 17.332 46.002 17.6191 46.5176 18.1934C47.0449 18.7676 47.3086 19.7344 47.3086 21.0938V26.6836H45.1289V21.0586C45.1289 20.2383 45.0234 19.6934 44.8125 19.4238C44.6016 19.1426 44.3555 19.002 44.0742 19.002C43.582 19.002 43.0605 19.3418 42.5098 20.0215C42.334 20.2441 42.1816 20.5137 42.0527 20.8301V26.6836ZM49.418 29.6191C48.7734 29.5137 48.2812 29.2324 47.9414 28.7754C47.6016 28.3301 47.4316 27.6738 47.4316 26.8066H49.5234C49.5234 27.1934 49.5352 27.4629 49.5586 27.6152C49.5938 27.7793 49.6348 27.8965 49.6816 27.9668C49.7637 28.084 49.8574 28.1484 49.9629 28.1602C50.0801 28.1719 50.1562 28.1777 50.1914 28.1777C50.3203 28.166 50.4434 28.0605 50.5605 27.8613C50.6777 27.6621 50.8066 27.3457 50.9473 26.9121L51.2637 25.9277L48.9258 19.8984C48.8086 19.5234 48.6914 19.2129 48.5742 18.9668C48.4688 18.709 48.375 18.5684 48.293 18.5449C48.1289 18.498 48 18.4336 47.9062 18.3516C47.8008 18.2578 47.748 18.1348 47.748 17.9824C47.748 17.6426 48 17.4727 48.5039 17.4727H50.3672L52.3184 22.834L54.1113 17.4727H55.377C55.6465 17.4727 55.8281 17.5605 55.9219 17.7363C56.0273 17.9121 56.0566 18.0996 56.0098 18.2988L52.8457 27.334C52.4707 28.4238 51.9844 29.1094 51.3867 29.3906C50.8008 29.6836 50.1445 29.7598 49.418 29.6191ZM62.2324 22.1309C62.2324 21.0527 62.0449 20.2266 61.6699 19.6523C61.3066 19.0664 60.8672 18.7734 60.3516 18.7734C59.918 18.7734 59.5371 18.9902 59.209 19.4238C58.8809 19.8457 58.7168 20.4258 58.7168 21.1641V22.834C58.7168 23.7832 58.8867 24.4453 59.2266 24.8203C59.5664 25.1836 59.9473 25.3652 60.3691 25.3652C60.8262 25.3652 61.248 25.0898 61.6348 24.5391C62.0332 23.9883 62.2324 23.1855 62.2324 22.1309ZM58.6992 17.877C59.2031 17.4551 59.8477 17.2441 60.6328 17.2441C61.875 17.2441 62.8184 17.6895 63.4629 18.5801C64.1074 19.459 64.4297 20.625 64.4297 22.0781C64.4297 23.4258 64.0898 24.5508 63.4102 25.4531C62.7305 26.3555 61.752 26.8066 60.4746 26.8066C59.5957 26.8066 58.9102 26.5664 58.418 26.0859C58.1367 26.4844 57.6504 26.6836 56.959 26.6836H56.5371V15.4863C56.5371 15.1348 56.5078 14.8945 56.4492 14.7656C56.3906 14.6367 56.3145 14.5547 56.2207 14.5195C56.0215 14.4492 55.875 14.3848 55.7812 14.3262C55.6875 14.2559 55.6406 14.1211 55.6406 13.9219C55.6406 13.5234 55.8867 13.3242 56.3789 13.3242H57.9434C58.4473 13.3242 58.6992 13.5176 58.6992 13.9043V17.877ZM65.7305 19.6348C65.7305 19.2598 65.7012 19.0137 65.6426 18.8965C65.5957 18.7676 65.5312 18.6855 65.4492 18.6504C65.2617 18.6035 65.1035 18.5391 64.9746 18.457C64.8574 18.3633 64.7988 18.2227 64.7988 18.0352C64.7988 17.6602 65.0508 17.4727 65.5547 17.4727H67.1016C67.6172 17.4727 67.875 17.6836 67.875 18.1055V18.2461C67.957 18.1641 68.0449 18.0879 68.1387 18.0176C68.666 17.5605 69.3574 17.332 70.2129 17.332H71.1094V19.3008C69.9844 19.0547 69.082 19.1895 68.4023 19.7051C68.2031 19.8457 68.0273 20.0449 67.875 20.3027V26.6836H65.7305V19.6348ZM74.2207 26.6836H72.0234V19.6348C72.0234 19.2715 71.9941 19.0254 71.9355 18.8965C71.877 18.7676 71.8125 18.6855 71.7422 18.6504C71.5312 18.5918 71.373 18.5215 71.2676 18.4395C71.1621 18.3574 71.1094 18.2344 71.1094 18.0703C71.1094 17.6719 71.3613 17.4727 71.8652 17.4727H73.4648C73.9688 17.4727 74.2207 17.6836 74.2207 18.1055V26.6836ZM74.291 14.748C74.291 15.123 74.1562 15.4453 73.8867 15.7148C73.6289 15.9727 73.3125 16.1016 72.9375 16.1016C72.5625 16.1016 72.2461 15.9727 71.9883 15.7148C71.7305 15.4453 71.6016 15.123 71.6016 14.748C71.6016 14.373 71.7305 14.0508 71.9883 13.7812C72.2461 13.5 72.5625 13.3594 72.9375 13.3594C73.3125 13.3594 73.6289 13.5 73.8867 13.7812C74.1562 14.0508 74.291 14.373 74.291 14.748ZM77.4727 22.1309C77.4727 23.1855 77.666 23.9883 78.0527 24.5391C78.4395 25.0781 78.8438 25.3477 79.2656 25.3477C79.7344 25.3477 80.1387 25.1016 80.4785 24.6094C80.8184 24.1172 80.9883 23.3496 80.9883 22.3066V21.1816C80.9883 20.3965 80.8184 19.7988 80.4785 19.3887C80.1387 18.9785 79.7109 18.7734 79.1953 18.7734C78.7734 18.7734 78.3809 19.0488 78.0176 19.5996C77.6543 20.1387 77.4727 20.9824 77.4727 22.1309ZM81.0059 26.1387C80.5254 26.584 79.9219 26.8066 79.1953 26.8066C77.8945 26.8066 76.916 26.3555 76.2598 25.4531C75.6035 24.5508 75.2754 23.4258 75.2754 22.0781C75.2754 20.625 75.6035 19.459 76.2598 18.5801C76.916 17.6895 77.8418 17.2441 79.0371 17.2441C79.8457 17.2441 80.502 17.4258 81.0059 17.7891V15.4863C81.0059 15.1348 80.9766 14.8945 80.918 14.7656C80.8594 14.625 80.7949 14.543 80.7246 14.5195C80.5254 14.4727 80.3672 14.4141 80.25 14.3438C80.1445 14.2617 80.0918 14.1094 80.0918 13.8867C80.0918 13.5117 80.3438 13.3242 80.8477 13.3242H82.4121C82.916 13.3242 83.168 13.5176 83.168 13.9043V26.6836H81.0059V26.1387ZM91.8516 22.1133C91.8516 23.0391 92.0391 23.7422 92.4141 24.2227C92.8008 24.6914 93.2051 24.9258 93.627 24.9258C94.1309 24.9258 94.5527 24.7207 94.8926 24.3105C95.2324 23.8887 95.4023 23.2207 95.4023 22.3066V21.1816C95.4023 20.3965 95.2207 19.7988 94.8574 19.3887C94.5059 18.9785 94.084 18.7734 93.5918 18.7734C93.1465 18.7734 92.7422 19.0312 92.3789 19.5469C92.0273 20.0625 91.8516 20.918 91.8516 22.1133ZM95.4199 25.8047C94.9395 26.1914 94.3301 26.3848 93.5918 26.3848C92.3145 26.3848 91.3418 25.957 90.6738 25.1016C90.0059 24.2461 89.6719 23.2383 89.6719 22.0781C89.6719 20.625 90.0059 19.459 90.6738 18.5801C91.3418 17.6895 92.2617 17.2441 93.4336 17.2441C94.2891 17.2441 94.9688 17.4785 95.4727 17.9473C95.6016 17.6309 95.9062 17.4727 96.3867 17.4727H97.6875C98.2031 17.4727 98.4609 17.6602 98.4609 18.0352C98.4609 18.2344 98.3613 18.3691 98.1621 18.4395C97.9746 18.5098 97.8164 18.5625 97.6875 18.5977C97.6758 18.6094 97.6523 18.6562 97.6172 18.7383C97.5938 18.8086 97.582 19.0723 97.582 19.5293V26.1387C97.582 27.2168 97.2656 28.0781 96.6328 28.7227C96 29.3672 95.0098 29.6895 93.6621 29.6895C92.373 29.6895 91.459 29.4434 90.9199 28.9512C90.3809 28.4707 90.0938 27.7852 90.0586 26.8945H92.2383C92.2617 27.3984 92.3965 27.7559 92.6426 27.9668C92.8887 28.1777 93.2578 28.2832 93.75 28.2832C94.207 28.2832 94.5996 28.1133 94.9277 27.7734C95.2559 27.4336 95.4199 26.8887 95.4199 26.1387V25.8047ZM104.209 26.0684C104.057 26.1855 103.787 26.3379 103.4 26.5254C103.014 26.7129 102.469 26.8066 101.766 26.8066C100.934 26.8066 100.248 26.5664 99.709 26.0859C99.1699 25.5938 98.9004 24.9668 98.9004 24.2051C98.9004 23.1738 99.3574 22.3477 100.271 21.7266C101.197 21.1055 102.316 20.7949 103.629 20.7949H104.191V20.4258C104.191 19.8867 104.039 19.4648 103.734 19.1602C103.43 18.8438 103.066 18.6855 102.645 18.6855C102.27 18.6855 101.947 18.7852 101.678 18.9844C101.42 19.1836 101.291 19.5703 101.291 20.1445H99.0059C99.0059 19.2188 99.3398 18.5039 100.008 18C100.676 17.4961 101.572 17.2441 102.697 17.2441C103.893 17.2441 104.801 17.543 105.422 18.1406C106.055 18.7266 106.371 19.5176 106.371 20.5137V26.6836H104.209V26.0684ZM104.191 22.2891C103.242 22.2656 102.486 22.4121 101.924 22.7285C101.361 23.0449 101.08 23.4785 101.08 24.0293C101.08 24.498 101.191 24.8203 101.414 24.9961C101.637 25.1602 101.889 25.2422 102.17 25.2422C102.662 25.2422 103.119 25.0605 103.541 24.6973C103.975 24.334 104.191 23.8945 104.191 23.3789V22.2891ZM109.975 26.6836H107.812V19.6348C107.812 19.2715 107.783 19.0254 107.725 18.8965C107.666 18.7676 107.602 18.6855 107.531 18.6504C107.309 18.6035 107.15 18.5391 107.057 18.457C106.963 18.375 106.916 18.2344 106.916 18.0352C106.916 17.6602 107.162 17.4727 107.654 17.4727H109.219C109.723 17.4727 109.975 17.6836 109.975 18.1055V18.2461C110.021 18.1992 110.068 18.1465 110.115 18.0879C110.572 17.6074 111.193 17.3555 111.979 17.332C112.846 17.332 113.49 17.625 113.912 18.2109C114.018 18.3516 114.111 18.5156 114.193 18.7031C114.299 18.5156 114.428 18.3398 114.58 18.1758C115.096 17.6133 115.74 17.332 116.514 17.332C117.404 17.332 118.055 17.6309 118.465 18.2285C118.887 18.8145 119.098 19.7461 119.098 21.0234V26.6836H116.936V21.0762C116.936 20.2676 116.859 19.7109 116.707 19.4062C116.566 19.1016 116.367 18.9492 116.109 18.9492C115.77 18.9492 115.371 19.2715 114.914 19.916C114.75 20.127 114.627 20.3672 114.545 20.6367V26.6836H112.383V21.0762C112.383 20.2559 112.307 19.6992 112.154 19.4062C112.014 19.1016 111.826 18.9492 111.592 18.9492C111.252 18.9609 110.842 19.2832 110.361 19.916C110.197 20.1152 110.068 20.3496 109.975 20.6191V26.6836ZM122.279 22.4824C122.326 23.1855 122.584 23.8301 123.053 24.416C123.521 24.9902 124.131 25.3066 124.881 25.3652C125.139 25.3887 125.414 25.3828 125.707 25.3477C126 25.3008 126.287 25.207 126.568 25.0664C126.92 24.9023 127.184 24.8555 127.359 24.9258C127.547 24.9844 127.688 25.1074 127.781 25.2949C127.828 25.4473 127.822 25.6113 127.764 25.7871C127.717 25.9512 127.611 26.0859 127.447 26.1914C127.131 26.3789 126.703 26.5371 126.164 26.666C125.637 26.7949 125.045 26.8418 124.389 26.8066C123.158 26.7246 122.121 26.2441 121.277 25.3652C120.434 24.4863 120.012 23.2734 120.012 21.7266C120.012 20.3438 120.393 19.2539 121.154 18.457C121.916 17.6484 122.953 17.2441 124.266 17.2441C125.391 17.2441 126.305 17.6133 127.008 18.3516C127.711 19.0898 128.062 20.2148 128.062 21.7266V22.4824H122.279ZM122.279 21.0059H125.865C125.865 20.2207 125.689 19.6406 125.338 19.2656C124.998 18.8789 124.623 18.6855 124.213 18.6855C123.744 18.6855 123.311 18.9023 122.912 19.3359C122.525 19.7695 122.314 20.3262 122.279 21.0059ZM133.863 22.043C133.863 20.6367 134.227 19.4883 134.953 18.5977C135.691 17.6953 136.758 17.2441 138.152 17.2441C139.559 17.2441 140.631 17.6953 141.369 18.5977C142.107 19.4883 142.477 20.6367 142.477 22.043C142.477 23.4375 142.107 24.5801 141.369 25.4707C140.631 26.3613 139.559 26.8066 138.152 26.8066C136.758 26.8066 135.691 26.3613 134.953 25.4707C134.227 24.5801 133.863 23.4375 133.863 22.043ZM136.166 22.043C136.166 23.1914 136.371 24.0352 136.781 24.5742C137.191 25.1016 137.648 25.3652 138.152 25.3652C138.668 25.3652 139.131 25.1016 139.541 24.5742C139.963 24.0352 140.174 23.1914 140.174 22.043C140.174 20.8828 139.963 20.0332 139.541 19.4941C139.131 18.9551 138.668 18.6855 138.152 18.6855C137.648 18.6855 137.191 18.9551 136.781 19.4941C136.371 20.0332 136.166 20.8828 136.166 22.043ZM144.006 18.8965H142.529V17.4727H144.006V15.6621C144.006 14.9238 144.234 14.332 144.691 13.8867C145.16 13.4297 145.834 13.2012 146.713 13.2012C147.65 13.2012 148.348 13.4297 148.805 13.8867C149.262 14.3438 149.49 14.9648 149.49 15.75H147.328C147.316 15.3164 147.258 15.0117 147.152 14.8359C147.059 14.6484 146.912 14.5547 146.713 14.5547C146.549 14.5664 146.42 14.666 146.326 14.8535C146.232 15.0293 146.186 15.3574 146.186 15.8379V17.4727H148.559V18.8965H146.186V26.6836H144.006V18.8965ZM163.307 15.873C163.307 16.2598 163.166 16.5938 162.885 16.875C162.615 17.1445 162.281 17.2793 161.883 17.2793C161.496 17.2793 161.162 17.1445 160.881 16.875C160.6 16.5938 160.436 16.2832 160.389 15.9434C160.307 15.3105 160.424 14.6836 160.74 14.0625C161.057 13.4297 161.514 12.9492 162.111 12.6211C162.451 12.4453 162.721 12.457 162.92 12.6562C163.131 12.8438 163.072 13.0605 162.744 13.3066C162.58 13.4473 162.439 13.6172 162.322 13.8164C162.205 14.0039 162.123 14.209 162.076 14.4316C162.064 14.5254 162.111 14.5723 162.217 14.5723C162.451 14.584 162.691 14.7129 162.938 14.959C163.184 15.2051 163.307 15.5098 163.307 15.873ZM166.559 15.873C166.559 16.2598 166.418 16.5938 166.137 16.875C165.867 17.1445 165.539 17.2793 165.152 17.2793C164.766 17.2793 164.432 17.1445 164.15 16.875C163.869 16.5938 163.705 16.2832 163.658 15.9434C163.564 15.3105 163.676 14.6836 163.992 14.0625C164.32 13.4297 164.783 12.9492 165.381 12.6211C165.709 12.4453 165.973 12.457 166.172 12.6562C166.383 12.8438 166.33 13.0605 166.014 13.3066C165.838 13.4473 165.691 13.6172 165.574 13.8164C165.457 14.0039 165.381 14.209 165.346 14.4316C165.334 14.5254 165.375 14.5723 165.469 14.5723C165.703 14.584 165.943 14.7129 166.189 14.959C166.436 15.2051 166.559 15.5098 166.559 15.873ZM170.725 22.5527C169.869 22.2598 169.178 21.8906 168.65 21.4453C168.135 20.9883 167.877 20.4375 167.877 19.793C167.877 19.0078 168.158 18.3809 168.721 17.9121C169.283 17.4316 170.115 17.1738 171.217 17.1387C171.697 17.1152 172.172 17.1562 172.641 17.2617C173.121 17.3555 173.59 17.5137 174.047 17.7363V19.8633C173.367 19.2773 172.816 18.9199 172.395 18.791C171.984 18.6504 171.615 18.5859 171.287 18.5977C170.9 18.5977 170.59 18.6797 170.355 18.8438C170.133 19.0078 170.01 19.2598 169.986 19.5996C169.975 19.8926 170.139 20.1621 170.479 20.4082C170.83 20.6426 171.322 20.8828 171.955 21.1289C172.904 21.4805 173.584 21.8789 173.994 22.3242C174.416 22.7695 174.627 23.291 174.627 23.8887C174.627 24.791 174.299 25.5059 173.643 26.0332C172.998 26.5488 172.09 26.8066 170.918 26.8066C170.344 26.8066 169.805 26.7305 169.301 26.5781C168.809 26.4141 168.439 26.2207 168.193 25.998C167.936 25.7754 167.801 25.5762 167.789 25.4004C167.777 25.2129 167.812 25.0547 167.895 24.9258C168.07 24.6797 168.293 24.5508 168.562 24.5391C168.832 24.5156 169.084 24.6094 169.318 24.8203C169.529 24.9727 169.787 25.1016 170.092 25.207C170.396 25.3008 170.672 25.3477 170.918 25.3477C171.492 25.3242 171.908 25.1719 172.166 24.8906C172.436 24.6094 172.535 24.2637 172.465 23.8535C172.441 23.6543 172.312 23.4434 172.078 23.2207C171.844 22.998 171.393 22.7754 170.725 22.5527ZM177.879 26.6836H175.734V19.6348C175.734 19.2598 175.711 19.0195 175.664 18.9141C175.629 18.7969 175.564 18.7207 175.471 18.6855C175.26 18.6035 175.09 18.5273 174.961 18.457C174.832 18.3867 174.768 18.2461 174.768 18.0352C174.768 17.6602 175.014 17.4727 175.506 17.4727H177.123C177.627 17.4727 177.879 17.6836 177.879 18.1055V18.4219C178.008 18.2812 178.16 18.1465 178.336 18.0176C178.887 17.5605 179.549 17.332 180.322 17.332C181.166 17.332 181.846 17.6191 182.361 18.1934C182.889 18.7676 183.152 19.7344 183.152 21.0938V26.6836H180.973V21.0586C180.973 20.2383 180.867 19.6934 180.656 19.4238C180.445 19.1426 180.211 19.002 179.953 19.002C179.426 19.0137 178.904 19.3477 178.389 20.0039C178.189 20.2617 178.02 20.5547 177.879 20.8828V26.6836ZM189.604 26.0684C189.451 26.1855 189.182 26.3379 188.795 26.5254C188.408 26.7129 187.863 26.8066 187.16 26.8066C186.328 26.8066 185.643 26.5664 185.104 26.0859C184.564 25.5938 184.295 24.9668 184.295 24.2051C184.295 23.1738 184.752 22.3477 185.666 21.7266C186.592 21.1055 187.711 20.7949 189.023 20.7949H189.586V20.4258C189.586 19.8867 189.434 19.4648 189.129 19.1602C188.824 18.8438 188.461 18.6855 188.039 18.6855C187.664 18.6855 187.342 18.7852 187.072 18.9844C186.814 19.1836 186.686 19.5703 186.686 20.1445H184.4C184.4 19.2188 184.734 18.5039 185.402 18C186.07 17.4961 186.967 17.2441 188.092 17.2441C189.287 17.2441 190.195 17.543 190.816 18.1406C191.449 18.7266 191.766 19.5176 191.766 20.5137V26.6836H189.604V26.0684ZM189.586 22.2891C188.637 22.2656 187.881 22.4121 187.318 22.7285C186.756 23.0449 186.475 23.4785 186.475 24.0293C186.475 24.498 186.586 24.8203 186.809 24.9961C187.031 25.1602 187.283 25.2422 187.564 25.2422C188.057 25.2422 188.514 25.0605 188.936 24.6973C189.369 24.334 189.586 23.8945 189.586 23.3789V22.2891ZM195.387 26.6836H193.207V15.4863C193.207 15.123 193.184 14.8828 193.137 14.7656C193.09 14.6367 193.02 14.5547 192.926 14.5195C192.762 14.4727 192.609 14.4141 192.469 14.3438C192.328 14.2617 192.258 14.1094 192.258 13.8867C192.258 13.5117 192.504 13.3242 192.996 13.3242H194.631C195.135 13.3242 195.387 13.5176 195.387 13.9043V20.3555L198.182 17.4727H200.695L196.67 21.4102L201.029 26.6836H198.498L195.387 22.7812V26.6836ZM202.84 22.4824C202.887 23.1855 203.145 23.8301 203.613 24.416C204.082 24.9902 204.691 25.3066 205.441 25.3652C205.699 25.3887 205.975 25.3828 206.268 25.3477C206.561 25.3008 206.848 25.207 207.129 25.0664C207.48 24.9023 207.744 24.8555 207.92 24.9258C208.107 24.9844 208.248 25.1074 208.342 25.2949C208.389 25.4473 208.383 25.6113 208.324 25.7871C208.277 25.9512 208.172 26.0859 208.008 26.1914C207.691 26.3789 207.264 26.5371 206.725 26.666C206.197 26.7949 205.605 26.8418 204.949 26.8066C203.719 26.7246 202.682 26.2441 201.838 25.3652C200.994 24.4863 200.572 23.2734 200.572 21.7266C200.572 20.3438 200.953 19.2539 201.715 18.457C202.477 17.6484 203.514 17.2441 204.826 17.2441C205.951 17.2441 206.865 17.6133 207.568 18.3516C208.271 19.0898 208.623 20.2148 208.623 21.7266V22.4824H202.84ZM202.84 21.0059H206.426C206.426 20.2207 206.25 19.6406 205.898 19.2656C205.559 18.8789 205.184 18.6855 204.773 18.6855C204.305 18.6855 203.871 18.9023 203.473 19.3359C203.086 19.7695 202.875 20.3262 202.84 21.0059ZM219.996 26.0684C219.844 26.1855 219.574 26.3379 219.188 26.5254C218.801 26.7129 218.256 26.8066 217.553 26.8066C216.721 26.8066 216.035 26.5664 215.496 26.0859C214.957 25.5938 214.688 24.9668 214.688 24.2051C214.688 23.1738 215.145 22.3477 216.059 21.7266C216.984 21.1055 218.104 20.7949 219.416 20.7949H219.979V20.4258C219.979 19.8867 219.826 19.4648 219.521 19.1602C219.217 18.8438 218.854 18.6855 218.432 18.6855C218.057 18.6855 217.734 18.7852 217.465 18.9844C217.207 19.1836 217.078 19.5703 217.078 20.1445H214.793C214.793 19.2188 215.127 18.5039 215.795 18C216.463 17.4961 217.359 17.2441 218.484 17.2441C219.68 17.2441 220.588 17.543 221.209 18.1406C221.842 18.7266 222.158 19.5176 222.158 20.5137V26.6836H219.996V26.0684ZM219.979 22.2891C219.029 22.2656 218.273 22.4121 217.711 22.7285C217.148 23.0449 216.867 23.4785 216.867 24.0293C216.867 24.498 216.979 24.8203 217.201 24.9961C217.424 25.1602 217.676 25.2422 217.957 25.2422C218.449 25.2422 218.906 25.0605 219.328 24.6973C219.762 24.334 219.979 23.8945 219.979 23.3789V22.2891ZM225.762 26.6836H223.617V19.6348C223.617 19.2598 223.594 19.0195 223.547 18.9141C223.512 18.7969 223.447 18.7207 223.354 18.6855C223.143 18.6035 222.973 18.5273 222.844 18.457C222.715 18.3867 222.65 18.2461 222.65 18.0352C222.65 17.6602 222.896 17.4727 223.389 17.4727H225.006C225.51 17.4727 225.762 17.6836 225.762 18.1055V18.4219C225.891 18.2812 226.043 18.1465 226.219 18.0176C226.77 17.5605 227.432 17.332 228.205 17.332C229.049 17.332 229.729 17.6191 230.244 18.1934C230.771 18.7676 231.035 19.7344 231.035 21.0938V26.6836H228.855V21.0586C228.855 20.2383 228.75 19.6934 228.539 19.4238C228.328 19.1426 228.094 19.002 227.836 19.002C227.309 19.0137 226.787 19.3477 226.271 20.0039C226.072 20.2617 225.902 20.5547 225.762 20.8828V26.6836ZM234.146 22.1309C234.146 23.1855 234.34 23.9883 234.727 24.5391C235.113 25.0781 235.518 25.3477 235.939 25.3477C236.408 25.3477 236.812 25.1016 237.152 24.6094C237.492 24.1172 237.662 23.3496 237.662 22.3066V21.1816C237.662 20.3965 237.492 19.7988 237.152 19.3887C236.812 18.9785 236.385 18.7734 235.869 18.7734C235.447 18.7734 235.055 19.0488 234.691 19.5996C234.328 20.1387 234.146 20.9824 234.146 22.1309ZM237.68 26.1387C237.199 26.584 236.596 26.8066 235.869 26.8066C234.568 26.8066 233.59 26.3555 232.934 25.4531C232.277 24.5508 231.949 23.4258 231.949 22.0781C231.949 20.625 232.277 19.459 232.934 18.5801C233.59 17.6895 234.516 17.2441 235.711 17.2441C236.52 17.2441 237.176 17.4258 237.68 17.7891V15.4863C237.68 15.1348 237.65 14.8945 237.592 14.7656C237.533 14.625 237.469 14.543 237.398 14.5195C237.199 14.4727 237.041 14.4141 236.924 14.3438C236.818 14.2617 236.766 14.1094 236.766 13.8867C236.766 13.5117 237.018 13.3242 237.521 13.3242H239.086C239.59 13.3242 239.842 13.5176 239.842 13.9043V26.6836H237.68V26.1387ZM249.334 26.6836H247.137V15.4863C247.137 15.123 247.107 14.8828 247.049 14.7656C247.002 14.6367 246.932 14.5547 246.838 14.5195C246.65 14.4492 246.498 14.3789 246.381 14.3086C246.275 14.2266 246.223 14.0801 246.223 13.8691C246.223 13.5059 246.475 13.3242 246.979 13.3242H248.578C249.082 13.3242 249.334 13.5176 249.334 13.9043V26.6836ZM255.926 26.0684C255.773 26.1855 255.504 26.3379 255.117 26.5254C254.73 26.7129 254.186 26.8066 253.482 26.8066C252.65 26.8066 251.965 26.5664 251.426 26.0859C250.887 25.5938 250.617 24.9668 250.617 24.2051C250.617 23.1738 251.074 22.3477 251.988 21.7266C252.914 21.1055 254.033 20.7949 255.346 20.7949H255.908V20.4258C255.908 19.8867 255.756 19.4648 255.451 19.1602C255.146 18.8438 254.783 18.6855 254.361 18.6855C253.986 18.6855 253.664 18.7852 253.395 18.9844C253.137 19.1836 253.008 19.5703 253.008 20.1445H250.723C250.723 19.2188 251.057 18.5039 251.725 18C252.393 17.4961 253.289 17.2441 254.414 17.2441C255.609 17.2441 256.518 17.543 257.139 18.1406C257.771 18.7266 258.088 19.5176 258.088 20.5137V26.6836H255.926V26.0684ZM255.908 22.2891C254.959 22.2656 254.203 22.4121 253.641 22.7285C253.078 23.0449 252.797 23.4785 252.797 24.0293C252.797 24.498 252.908 24.8203 253.131 24.9961C253.354 25.1602 253.605 25.2422 253.887 25.2422C254.379 25.2422 254.836 25.0605 255.258 24.6973C255.691 24.334 255.908 23.8945 255.908 23.3789V22.2891ZM261.076 22.1309C261.076 23.1855 261.27 23.9883 261.656 24.5391C262.043 25.0781 262.447 25.3477 262.869 25.3477C263.338 25.3477 263.742 25.1016 264.082 24.6094C264.422 24.1172 264.592 23.3496 264.592 22.3066V21.1816C264.592 20.3965 264.422 19.7988 264.082 19.3887C263.742 18.9785 263.314 18.7734 262.799 18.7734C262.377 18.7734 261.984 19.0488 261.621 19.5996C261.258 20.1387 261.076 20.9824 261.076 22.1309ZM264.609 26.1387C264.129 26.584 263.525 26.8066 262.799 26.8066C261.498 26.8066 260.52 26.3555 259.863 25.4531C259.207 24.5508 258.879 23.4258 258.879 22.0781C258.879 20.625 259.207 19.459 259.863 18.5801C260.52 17.6895 261.445 17.2441 262.641 17.2441C263.449 17.2441 264.105 17.4258 264.609 17.7891V15.4863C264.609 15.1348 264.58 14.8945 264.521 14.7656C264.463 14.625 264.398 14.543 264.328 14.5195C264.129 14.4727 263.971 14.4141 263.854 14.3438C263.748 14.2617 263.695 14.1094 263.695 13.8867C263.695 13.5117 263.947 13.3242 264.451 13.3242H266.016C266.52 13.3242 266.771 13.5176 266.771 13.9043V26.6836H264.609V26.1387ZM270.076 22.1309C270.076 23.1855 270.27 23.9883 270.656 24.5391C271.043 25.0781 271.447 25.3477 271.869 25.3477C272.338 25.3477 272.742 25.1016 273.082 24.6094C273.422 24.1172 273.592 23.3496 273.592 22.3066V21.1816C273.592 20.3965 273.422 19.7988 273.082 19.3887C272.742 18.9785 272.314 18.7734 271.799 18.7734C271.377 18.7734 270.984 19.0488 270.621 19.5996C270.258 20.1387 270.076 20.9824 270.076 22.1309ZM273.609 26.1387C273.129 26.584 272.525 26.8066 271.799 26.8066C270.498 26.8066 269.52 26.3555 268.863 25.4531C268.207 24.5508 267.879 23.4258 267.879 22.0781C267.879 20.625 268.207 19.459 268.863 18.5801C269.52 17.6895 270.445 17.2441 271.641 17.2441C272.449 17.2441 273.105 17.4258 273.609 17.7891V15.4863C273.609 15.1348 273.58 14.8945 273.521 14.7656C273.463 14.625 273.398 14.543 273.328 14.5195C273.129 14.4727 272.971 14.4141 272.854 14.3438C272.748 14.2617 272.695 14.1094 272.695 13.8867C272.695 13.5117 272.947 13.3242 273.451 13.3242H275.016C275.52 13.3242 275.771 13.5176 275.771 13.9043V26.6836H273.609V26.1387ZM279.146 22.4824C279.193 23.1855 279.451 23.8301 279.92 24.416C280.389 24.9902 280.998 25.3066 281.748 25.3652C282.006 25.3887 282.281 25.3828 282.574 25.3477C282.867 25.3008 283.154 25.207 283.436 25.0664C283.787 24.9023 284.051 24.8555 284.227 24.9258C284.414 24.9844 284.555 25.1074 284.648 25.2949C284.695 25.4473 284.689 25.6113 284.631 25.7871C284.584 25.9512 284.479 26.0859 284.314 26.1914C283.998 26.3789 283.57 26.5371 283.031 26.666C282.504 26.7949 281.912 26.8418 281.256 26.8066C280.025 26.7246 278.988 26.2441 278.145 25.3652C277.301 24.4863 276.879 23.2734 276.879 21.7266C276.879 20.3438 277.26 19.2539 278.021 18.457C278.783 17.6484 279.82 17.2441 281.133 17.2441C282.258 17.2441 283.172 17.6133 283.875 18.3516C284.578 19.0898 284.93 20.2148 284.93 21.7266V22.4824H279.146ZM279.146 21.0059H282.732C282.732 20.2207 282.557 19.6406 282.205 19.2656C281.865 18.8789 281.49 18.6855 281.08 18.6855C280.611 18.6855 280.178 18.9023 279.779 19.3359C279.393 19.7695 279.182 20.3262 279.146 21.0059ZM286.213 19.6348C286.213 19.2598 286.184 19.0137 286.125 18.8965C286.078 18.7676 286.014 18.6855 285.932 18.6504C285.744 18.6035 285.586 18.5391 285.457 18.457C285.34 18.3633 285.281 18.2227 285.281 18.0352C285.281 17.6602 285.533 17.4727 286.037 17.4727H287.584C288.1 17.4727 288.357 17.6836 288.357 18.1055V18.2461C288.439 18.1641 288.527 18.0879 288.621 18.0176C289.148 17.5605 289.84 17.332 290.695 17.332H291.592V19.3008C290.467 19.0547 289.564 19.1895 288.885 19.7051C288.686 19.8457 288.51 20.0449 288.357 20.3027V26.6836H286.213V19.6348ZM294.721 22.5527C293.865 22.2598 293.174 21.8906 292.646 21.4453C292.131 20.9883 291.873 20.4375 291.873 19.793C291.873 19.0078 292.154 18.3809 292.717 17.9121C293.279 17.4316 294.111 17.1738 295.213 17.1387C295.693 17.1152 296.168 17.1562 296.637 17.2617C297.117 17.3555 297.586 17.5137 298.043 17.7363V19.8633C297.363 19.2773 296.812 18.9199 296.391 18.791C295.98 18.6504 295.611 18.5859 295.283 18.5977C294.896 18.5977 294.586 18.6797 294.352 18.8438C294.129 19.0078 294.006 19.2598 293.982 19.5996C293.971 19.8926 294.135 20.1621 294.475 20.4082C294.826 20.6426 295.318 20.8828 295.951 21.1289C296.9 21.4805 297.58 21.8789 297.99 22.3242C298.412 22.7695 298.623 23.291 298.623 23.8887C298.623 24.791 298.295 25.5059 297.639 26.0332C296.994 26.5488 296.086 26.8066 294.914 26.8066C294.34 26.8066 293.801 26.7305 293.297 26.5781C292.805 26.4141 292.436 26.2207 292.189 25.998C291.932 25.7754 291.797 25.5762 291.785 25.4004C291.773 25.2129 291.809 25.0547 291.891 24.9258C292.066 24.6797 292.289 24.5508 292.559 24.5391C292.828 24.5156 293.08 24.6094 293.314 24.8203C293.525 24.9727 293.783 25.1016 294.088 25.207C294.393 25.3008 294.668 25.3477 294.914 25.3477C295.488 25.3242 295.904 25.1719 296.162 24.8906C296.432 24.6094 296.531 24.2637 296.461 23.8535C296.438 23.6543 296.309 23.4434 296.074 23.2207C295.84 22.998 295.389 22.7754 294.721 22.5527ZM303.018 13.623C303.018 13.2363 303.152 12.9082 303.422 12.6387C303.703 12.3574 304.037 12.2168 304.424 12.2168C304.811 12.2168 305.145 12.3574 305.426 12.6387C305.707 12.9082 305.871 13.2129 305.918 13.5527C306.012 14.1855 305.895 14.8125 305.566 15.4336C305.25 16.0547 304.793 16.5293 304.195 16.8574C303.855 17.0332 303.586 17.0273 303.387 16.8398C303.188 16.6523 303.246 16.4297 303.562 16.1719C303.738 16.043 303.885 15.8789 304.002 15.6797C304.119 15.4805 304.195 15.2754 304.23 15.0645C304.242 14.959 304.201 14.9062 304.107 14.9062C303.873 14.8945 303.633 14.7656 303.387 14.5195C303.141 14.2734 303.018 13.9746 303.018 13.623ZM299.748 13.623C299.748 13.2363 299.883 12.9082 300.152 12.6387C300.434 12.3574 300.773 12.2168 301.172 12.2168C301.559 12.2168 301.893 12.3574 302.174 12.6387C302.455 12.9082 302.619 13.2129 302.666 13.5527C302.748 14.1855 302.631 14.8125 302.314 15.4336C301.998 16.0547 301.541 16.5293 300.943 16.8574C300.604 17.0332 300.328 17.0273 300.117 16.8398C299.918 16.6523 299.982 16.4297 300.311 16.1719C300.475 16.043 300.615 15.8789 300.732 15.6797C300.861 15.4805 300.943 15.2754 300.979 15.0645C300.99 14.959 300.949 14.9062 300.855 14.9062C300.609 14.8945 300.363 14.7656 300.117 14.5195C299.871 14.2734 299.748 13.9746 299.748 13.623ZM317.977 26.0684C317.824 26.1855 317.555 26.3379 317.168 26.5254C316.781 26.7129 316.236 26.8066 315.533 26.8066C314.701 26.8066 314.016 26.5664 313.477 26.0859C312.938 25.5938 312.668 24.9668 312.668 24.2051C312.668 23.1738 313.125 22.3477 314.039 21.7266C314.965 21.1055 316.084 20.7949 317.396 20.7949H317.959V20.4258C317.959 19.8867 317.807 19.4648 317.502 19.1602C317.197 18.8438 316.834 18.6855 316.412 18.6855C316.037 18.6855 315.715 18.7852 315.445 18.9844C315.188 19.1836 315.059 19.5703 315.059 20.1445H312.773C312.773 19.2188 313.107 18.5039 313.775 18C314.443 17.4961 315.34 17.2441 316.465 17.2441C317.66 17.2441 318.568 17.543 319.189 18.1406C319.822 18.7266 320.139 19.5176 320.139 20.5137V26.6836H317.977V26.0684ZM317.959 22.2891C317.01 22.2656 316.254 22.4121 315.691 22.7285C315.129 23.0449 314.848 23.4785 314.848 24.0293C314.848 24.498 314.959 24.8203 315.182 24.9961C315.404 25.1602 315.656 25.2422 315.938 25.2422C316.43 25.2422 316.887 25.0605 317.309 24.6973C317.742 24.334 317.959 23.8945 317.959 23.3789V22.2891ZM323.742 26.6836H321.598V19.6348C321.598 19.2598 321.574 19.0195 321.527 18.9141C321.492 18.7969 321.428 18.7207 321.334 18.6855C321.123 18.6035 320.953 18.5273 320.824 18.457C320.695 18.3867 320.631 18.2461 320.631 18.0352C320.631 17.6602 320.877 17.4727 321.369 17.4727H322.986C323.49 17.4727 323.742 17.6836 323.742 18.1055V18.4219C323.871 18.2812 324.023 18.1465 324.199 18.0176C324.75 17.5605 325.412 17.332 326.186 17.332C327.029 17.332 327.709 17.6191 328.225 18.1934C328.752 18.7676 329.016 19.7344 329.016 21.0938V26.6836H326.836V21.0586C326.836 20.2383 326.73 19.6934 326.52 19.4238C326.309 19.1426 326.074 19.002 325.816 19.002C325.289 19.0137 324.768 19.3477 324.252 20.0039C324.053 20.2617 323.883 20.5547 323.742 20.8828V26.6836ZM332.127 22.1309C332.127 23.1855 332.32 23.9883 332.707 24.5391C333.094 25.0781 333.498 25.3477 333.92 25.3477C334.389 25.3477 334.793 25.1016 335.133 24.6094C335.473 24.1172 335.643 23.3496 335.643 22.3066V21.1816C335.643 20.3965 335.473 19.7988 335.133 19.3887C334.793 18.9785 334.365 18.7734 333.85 18.7734C333.428 18.7734 333.035 19.0488 332.672 19.5996C332.309 20.1387 332.127 20.9824 332.127 22.1309ZM335.66 26.1387C335.18 26.584 334.576 26.8066 333.85 26.8066C332.549 26.8066 331.57 26.3555 330.914 25.4531C330.258 24.5508 329.93 23.4258 329.93 22.0781C329.93 20.625 330.258 19.459 330.914 18.5801C331.57 17.6895 332.496 17.2441 333.691 17.2441C334.5 17.2441 335.156 17.4258 335.66 17.7891V15.4863C335.66 15.1348 335.631 14.8945 335.572 14.7656C335.514 14.625 335.449 14.543 335.379 14.5195C335.18 14.4727 335.021 14.4141 334.904 14.3438C334.799 14.2617 334.746 14.1094 334.746 13.8867C334.746 13.5117 334.998 13.3242 335.502 13.3242H337.066C337.57 13.3242 337.822 13.5176 337.822 13.9043V26.6836H335.66V26.1387ZM347.895 15.873C347.895 16.2598 347.754 16.5938 347.473 16.875C347.203 17.1445 346.869 17.2793 346.471 17.2793C346.084 17.2793 345.75 17.1445 345.469 16.875C345.188 16.5938 345.023 16.2832 344.977 15.9434C344.895 15.3105 345.012 14.6836 345.328 14.0625C345.645 13.4297 346.102 12.9492 346.699 12.6211C347.039 12.4453 347.309 12.457 347.508 12.6562C347.719 12.8438 347.66 13.0605 347.332 13.3066C347.168 13.4473 347.027 13.6172 346.91 13.8164C346.793 14.0039 346.711 14.209 346.664 14.4316C346.652 14.5254 346.699 14.5723 346.805 14.5723C347.039 14.584 347.279 14.7129 347.525 14.959C347.771 15.2051 347.895 15.5098 347.895 15.873ZM351.146 15.873C351.146 16.2598 351.006 16.5938 350.725 16.875C350.455 17.1445 350.127 17.2793 349.74 17.2793C349.354 17.2793 349.02 17.1445 348.738 16.875C348.457 16.5938 348.293 16.2832 348.246 15.9434C348.152 15.3105 348.264 14.6836 348.58 14.0625C348.908 13.4297 349.371 12.9492 349.969 12.6211C350.297 12.4453 350.561 12.457 350.76 12.6562C350.971 12.8438 350.918 13.0605 350.602 13.3066C350.426 13.4473 350.279 13.6172 350.162 13.8164C350.045 14.0039 349.969 14.209 349.934 14.4316C349.922 14.5254 349.963 14.5723 350.057 14.5723C350.291 14.584 350.531 14.7129 350.777 14.959C351.023 15.2051 351.146 15.5098 351.146 15.873ZM359.76 26.1387C359.479 26.3496 359.074 26.5254 358.547 26.666C358.031 26.7949 357.41 26.8418 356.684 26.8066C355.453 26.7363 354.416 26.2617 353.572 25.3828C352.729 24.4922 352.307 23.2734 352.307 21.7266C352.307 20.3672 352.688 19.2832 353.449 18.4746C354.211 17.6543 355.26 17.2441 356.596 17.2441C357.674 17.2441 358.535 17.5078 359.18 18.0352C359.836 18.5508 360.188 19.248 360.234 20.127H358.002C358.002 19.6113 357.867 19.2422 357.598 19.0195C357.328 18.7969 356.965 18.6855 356.508 18.6855C356.039 18.6855 355.6 18.9492 355.189 19.4766C354.779 19.9922 354.574 20.7422 354.574 21.7266C354.574 22.8047 354.82 23.666 355.312 24.3105C355.805 24.9551 356.426 25.3066 357.176 25.3652C357.434 25.3887 357.709 25.3828 358.002 25.3477C358.295 25.3008 358.588 25.207 358.881 25.0664C359.186 24.9141 359.432 24.8613 359.619 24.9082C359.818 24.9551 359.965 25.0605 360.059 25.2246C360.117 25.3887 360.117 25.5586 360.059 25.7344C360.012 25.8984 359.912 26.0332 359.76 26.1387ZM363.627 26.6836H361.447V15.4863C361.447 15.1348 361.418 14.9004 361.359 14.7832C361.301 14.6543 361.23 14.5723 361.148 14.5371C360.961 14.4668 360.814 14.3965 360.709 14.3262C360.604 14.2559 360.551 14.1211 360.551 13.9219C360.551 13.5234 360.797 13.3242 361.289 13.3242H362.871C363.375 13.3242 363.627 13.5176 363.627 13.9043V18.4395C363.756 18.2988 363.908 18.1641 364.084 18.0352C364.67 17.5664 365.326 17.332 366.053 17.332C366.896 17.332 367.576 17.6191 368.092 18.1934C368.619 18.7676 368.883 19.7344 368.883 21.0938V26.6836H366.703V21.0586C366.703 20.2383 366.598 19.6934 366.387 19.4238C366.176 19.1426 365.93 19.002 365.648 19.002C365.156 19.002 364.635 19.3418 364.084 20.0215C363.908 20.2441 363.756 20.5137 363.627 20.8301V26.6836ZM372.064 22.4824C372.111 23.1855 372.369 23.8301 372.838 24.416C373.307 24.9902 373.916 25.3066 374.666 25.3652C374.924 25.3887 375.199 25.3828 375.492 25.3477C375.785 25.3008 376.072 25.207 376.354 25.0664C376.705 24.9023 376.969 24.8555 377.145 24.9258C377.332 24.9844 377.473 25.1074 377.566 25.2949C377.613 25.4473 377.607 25.6113 377.549 25.7871C377.502 25.9512 377.396 26.0859 377.232 26.1914C376.916 26.3789 376.488 26.5371 375.949 26.666C375.422 26.7949 374.83 26.8418 374.174 26.8066C372.943 26.7246 371.906 26.2441 371.062 25.3652C370.219 24.4863 369.797 23.2734 369.797 21.7266C369.797 20.3438 370.178 19.2539 370.939 18.457C371.701 17.6484 372.738 17.2441 374.051 17.2441C375.176 17.2441 376.09 17.6133 376.793 18.3516C377.496 19.0898 377.848 20.2148 377.848 21.7266V22.4824H372.064ZM372.064 21.0059H375.65C375.65 20.2207 375.475 19.6406 375.123 19.2656C374.783 18.8789 374.408 18.6855 373.998 18.6855C373.529 18.6855 373.096 18.9023 372.697 19.3359C372.311 19.7695 372.1 20.3262 372.064 21.0059ZM381.293 22.5527C380.438 22.2598 379.746 21.8906 379.219 21.4453C378.703 20.9883 378.445 20.4375 378.445 19.793C378.445 19.0078 378.727 18.3809 379.289 17.9121C379.852 17.4316 380.684 17.1738 381.785 17.1387C382.266 17.1152 382.74 17.1562 383.209 17.2617C383.689 17.3555 384.158 17.5137 384.615 17.7363V19.8633C383.936 19.2773 383.385 18.9199 382.963 18.791C382.553 18.6504 382.184 18.5859 381.855 18.5977C381.469 18.5977 381.158 18.6797 380.924 18.8438C380.701 19.0078 380.578 19.2598 380.555 19.5996C380.543 19.8926 380.707 20.1621 381.047 20.4082C381.398 20.6426 381.891 20.8828 382.523 21.1289C383.473 21.4805 384.152 21.8789 384.562 22.3242C384.984 22.7695 385.195 23.291 385.195 23.8887C385.195 24.791 384.867 25.5059 384.211 26.0332C383.566 26.5488 382.658 26.8066 381.486 26.8066C380.912 26.8066 380.373 26.7305 379.869 26.5781C379.377 26.4141 379.008 26.2207 378.762 25.998C378.504 25.7754 378.369 25.5762 378.357 25.4004C378.346 25.2129 378.381 25.0547 378.463 24.9258C378.639 24.6797 378.861 24.5508 379.131 24.5391C379.4 24.5156 379.652 24.6094 379.887 24.8203C380.098 24.9727 380.355 25.1016 380.66 25.207C380.965 25.3008 381.24 25.3477 381.486 25.3477C382.061 25.3242 382.477 25.1719 382.734 24.8906C383.004 24.6094 383.104 24.2637 383.033 23.8535C383.01 23.6543 382.881 23.4434 382.646 23.2207C382.412 22.998 381.961 22.7754 381.293 22.5527ZM388.641 22.5527C387.785 22.2598 387.094 21.8906 386.566 21.4453C386.051 20.9883 385.793 20.4375 385.793 19.793C385.793 19.0078 386.074 18.3809 386.637 17.9121C387.199 17.4316 388.031 17.1738 389.133 17.1387C389.613 17.1152 390.088 17.1562 390.557 17.2617C391.037 17.3555 391.506 17.5137 391.963 17.7363V19.8633C391.283 19.2773 390.732 18.9199 390.311 18.791C389.9 18.6504 389.531 18.5859 389.203 18.5977C388.816 18.5977 388.506 18.6797 388.271 18.8438C388.049 19.0078 387.926 19.2598 387.902 19.5996C387.891 19.8926 388.055 20.1621 388.395 20.4082C388.746 20.6426 389.238 20.8828 389.871 21.1289C390.82 21.4805 391.5 21.8789 391.91 22.3242C392.332 22.7695 392.543 23.291 392.543 23.8887C392.543 24.791 392.215 25.5059 391.559 26.0332C390.914 26.5488 390.006 26.8066 388.834 26.8066C388.26 26.8066 387.721 26.7305 387.217 26.5781C386.725 26.4141 386.355 26.2207 386.109 25.998C385.852 25.7754 385.717 25.5762 385.705 25.4004C385.693 25.2129 385.729 25.0547 385.811 24.9258C385.986 24.6797 386.209 24.5508 386.479 24.5391C386.748 24.5156 387 24.6094 387.234 24.8203C387.445 24.9727 387.703 25.1016 388.008 25.207C388.312 25.3008 388.588 25.3477 388.834 25.3477C389.408 25.3242 389.824 25.1719 390.082 24.8906C390.352 24.6094 390.451 24.2637 390.381 23.8535C390.357 23.6543 390.229 23.4434 389.994 23.2207C389.76 22.998 389.309 22.7754 388.641 22.5527ZM396.938 13.623C396.938 13.2363 397.072 12.9082 397.342 12.6387C397.623 12.3574 397.957 12.2168 398.344 12.2168C398.73 12.2168 399.064 12.3574 399.346 12.6387C399.627 12.9082 399.791 13.2129 399.838 13.5527C399.932 14.1855 399.814 14.8125 399.486 15.4336C399.17 16.0547 398.713 16.5293 398.115 16.8574C397.775 17.0332 397.506 17.0273 397.307 16.8398C397.107 16.6523 397.166 16.4297 397.482 16.1719C397.658 16.043 397.805 15.8789 397.922 15.6797C398.039 15.4805 398.115 15.2754 398.15 15.0645C398.162 14.959 398.121 14.9062 398.027 14.9062C397.793 14.8945 397.553 14.7656 397.307 14.5195C397.061 14.2734 396.938 13.9746 396.938 13.623ZM393.668 13.623C393.668 13.2363 393.803 12.9082 394.072 12.6387C394.354 12.3574 394.693 12.2168 395.092 12.2168C395.479 12.2168 395.812 12.3574 396.094 12.6387C396.375 12.9082 396.539 13.2129 396.586 13.5527C396.668 14.1855 396.551 14.8125 396.234 15.4336C395.918 16.0547 395.461 16.5293 394.863 16.8574C394.523 17.0332 394.248 17.0273 394.037 16.8398C393.838 16.6523 393.902 16.4297 394.23 16.1719C394.395 16.043 394.535 15.8789 394.652 15.6797C394.781 15.4805 394.863 15.2754 394.898 15.0645C394.91 14.959 394.869 14.9062 394.775 14.9062C394.529 14.8945 394.283 14.7656 394.037 14.5195C393.791 14.2734 393.668 13.9746 393.668 13.623Z" fill="black"/>
</g>
<defs>
<filter id="filter0_d" x="0" y="0" width="420" height="51" filterUnits="userSpaceOnUse" color-interpolation-filters="sRGB">
<feFlood flood-opacity="0" result="BackgroundImageFix"/>
<feColorMatrix in="SourceAlpha" type="matrix" values="0 0 0 0 0 0 0 0 0 0 0 0 0 0 0 0 0 0 127 0"/>
<feOffset dy="5"/>
<feGaussianBlur stdDeviation="2"/>
<feColorMatrix type="matrix" values="0 0 0 0 0 0 0 0 0 0 0 0 0 0 0 0 0 0 0.25 0"/>
<feBlend mode="normal" in2="BackgroundImageFix" result="effect1_dropShadow"/>
<feBlend mode="normal" in="SourceGraphic" in2="effect1_dropShadow" result="shape"/>
</filter>
</defs>
</svg>
