<svg width="419" height="150" viewBox="0 0 419 150" fill="none" xmlns="http://www.w3.org/2000/svg">
<g filter="url(#filter0_d)">
<path d="M4 25C4 11.1929 15.1929 0 29 0H390C403.807 0 415 11.1929 415 25V111C415 124.807 403.807 136 390 136H29C15.1929 136 4 124.807 4 111V25Z" fill="#E8EC43"/>
<path d="M79.1737 42.3806C78.5487 42.8754 77.5982 43.3312 76.3221 43.7478C75.0721 44.1385 73.757 44.3859 72.3768 44.49C67.8456 44.7765 64.2518 43.4614 61.5956 40.5447C58.9654 37.602 57.6503 33.852 57.6503 29.2947C57.6503 25.102 58.6919 21.6645 60.7753 18.9822C62.8846 16.2739 66.0226 14.9197 70.1893 14.9197C72.8716 14.9197 75.1112 15.6359 76.9081 17.0681C78.731 18.5004 79.6424 20.1931 79.6424 22.1463H74.369C74.3169 20.9223 73.8872 19.9978 73.0799 19.3728C72.2726 18.7218 71.244 18.3963 69.994 18.3963C68.145 18.3963 66.4784 19.3338 64.994 21.2088C63.5357 23.0577 62.8065 25.5317 62.8065 28.6306C62.8065 33.2921 63.8742 36.5603 66.0096 38.4353C68.1711 40.2843 70.4237 41.1176 72.7674 40.9353C73.6008 40.8572 74.3299 40.714 74.9549 40.5056C75.606 40.2973 76.1919 40.076 76.7128 39.8416C77.3898 39.3989 78.0279 39.2426 78.6268 39.3728C79.2258 39.503 79.6294 39.8025 79.8378 40.2713C79.994 40.6359 79.994 41.0265 79.8378 41.4431C79.7075 41.8338 79.4862 42.1463 79.1737 42.3806ZM87.1815 44.2166H82.2987V19.3338C82.2987 18.5265 82.2336 17.9926 82.1034 17.7322C81.9992 17.4457 81.843 17.2635 81.6346 17.1853C81.218 17.0291 80.8794 16.8728 80.619 16.7166C80.3846 16.5343 80.2674 16.2088 80.2674 15.74C80.2674 14.9327 80.8273 14.5291 81.9471 14.5291H85.5018C86.6216 14.5291 87.1815 14.9588 87.1815 15.8181V44.2166ZM96.1659 44.2166H91.2831V28.5525C91.2831 27.7452 91.218 27.1984 91.0878 26.9119C90.9575 26.6254 90.8143 26.4431 90.6581 26.365C90.1893 26.2348 89.8378 26.0786 89.6034 25.8963C89.369 25.714 89.2518 25.4405 89.2518 25.076C89.2518 24.1905 89.8117 23.7478 90.9315 23.7478H94.4862C95.606 23.7478 96.1659 24.2166 96.1659 25.1541V44.2166ZM96.3221 17.6931C96.3221 18.5265 96.0226 19.2426 95.4237 19.8416C94.8508 20.4145 94.1476 20.701 93.3143 20.701C92.481 20.701 91.7779 20.4145 91.2049 19.8416C90.632 19.2426 90.3456 18.5265 90.3456 17.6931C90.3456 16.8598 90.632 16.1437 91.2049 15.5447C91.7779 14.9197 92.481 14.6072 93.3143 14.6072C94.1476 14.6072 94.8508 14.9197 95.4237 15.5447C96.0226 16.1437 96.3221 16.8598 96.3221 17.6931ZM115.072 43.0056C114.447 43.4744 113.549 43.865 112.377 44.1775C111.231 44.464 109.851 44.5681 108.236 44.49C105.502 44.3338 103.197 43.2791 101.322 41.326C99.4471 39.3468 98.5096 36.6385 98.5096 33.201C98.5096 30.1801 99.356 27.7713 101.049 25.9744C102.741 24.1515 105.072 23.24 108.041 23.24C110.437 23.24 112.351 23.826 113.783 24.9978C115.241 26.1437 116.023 27.6931 116.127 29.6463H111.166C111.166 28.5004 110.866 27.6801 110.267 27.1853C109.668 26.6905 108.861 26.4431 107.846 26.4431C106.804 26.4431 105.827 27.0291 104.916 28.201C104.004 29.3468 103.549 31.0135 103.549 33.201C103.549 35.5968 104.096 37.5109 105.189 38.9431C106.283 40.3754 107.663 41.1567 109.33 41.2869C109.903 41.339 110.515 41.326 111.166 41.2478C111.817 41.1437 112.468 40.9353 113.119 40.6228C113.796 40.2843 114.343 40.1671 114.76 40.2713C115.202 40.3754 115.528 40.6098 115.736 40.9744C115.866 41.339 115.866 41.7166 115.736 42.1072C115.632 42.4718 115.411 42.7713 115.072 43.0056ZM123.666 44.2166H118.822V19.3338C118.822 18.5265 118.77 17.9926 118.666 17.7322C118.562 17.4457 118.405 17.2635 118.197 17.1853C117.833 17.0812 117.494 16.951 117.182 16.7947C116.869 16.6124 116.713 16.2739 116.713 15.7791C116.713 14.9457 117.26 14.5291 118.353 14.5291H121.986C123.106 14.5291 123.666 14.9588 123.666 15.8181V30.1541L129.877 23.7478H135.463L126.517 32.4978L136.205 44.2166H130.58L123.666 35.5447V44.2166ZM147.103 33.9041C147.103 30.7791 147.911 28.227 149.525 26.2478C151.166 24.2426 153.536 23.24 156.635 23.24C159.76 23.24 162.142 24.2426 163.783 26.2478C165.424 28.227 166.244 30.7791 166.244 33.9041C166.244 37.003 165.424 39.5421 163.783 41.5213C162.142 43.5004 159.76 44.49 156.635 44.49C153.536 44.49 151.166 43.5004 149.525 41.5213C147.911 39.5421 147.103 37.003 147.103 33.9041ZM152.221 33.9041C152.221 36.4562 152.676 38.3312 153.588 39.5291C154.499 40.701 155.515 41.2869 156.635 41.2869C157.78 41.2869 158.809 40.701 159.721 39.5291C160.658 38.3312 161.127 36.4562 161.127 33.9041C161.127 31.326 160.658 29.4379 159.721 28.24C158.809 27.0421 157.78 26.4431 156.635 26.4431C155.515 26.4431 154.499 27.0421 153.588 28.24C152.676 29.4379 152.221 31.326 152.221 33.9041ZM173.432 44.2166H168.666V28.5525C168.666 27.7192 168.614 27.1853 168.51 26.951C168.432 26.6905 168.288 26.5213 168.08 26.4431C167.611 26.2609 167.234 26.0916 166.947 25.9353C166.661 25.7791 166.517 25.4666 166.517 24.9978C166.517 24.1645 167.064 23.7478 168.158 23.7478H171.752C172.872 23.7478 173.432 24.2166 173.432 25.1541V25.8572C173.718 25.5447 174.057 25.2452 174.447 24.9588C175.671 23.9431 177.142 23.4353 178.861 23.4353C180.736 23.4353 182.247 24.0734 183.392 25.3494C184.564 26.6254 185.15 28.7739 185.15 31.7947V44.2166H180.307V31.7166C180.307 29.8937 180.072 28.6827 179.603 28.0838C179.135 27.4588 178.614 27.1463 178.041 27.1463C176.869 27.1723 175.71 27.9145 174.564 29.3728C174.122 29.9457 173.744 30.5968 173.432 31.326V44.2166ZM206.049 15.8181V23.7478H211.322V26.9119H206.088V39.0213C206.088 39.9588 206.244 40.5707 206.557 40.8572C206.895 41.1437 207.403 41.2869 208.08 41.2869C208.445 41.2869 208.796 41.2869 209.135 41.2869C209.499 41.2609 210.346 41.0786 211.674 40.74V44.0213C210.788 44.3077 209.929 44.477 209.096 44.5291C208.288 44.5812 207.663 44.6072 207.221 44.6072C205.892 44.6072 204.799 44.464 203.939 44.1775C203.08 43.865 202.468 43.4223 202.103 42.8494C201.687 42.3286 201.439 41.6775 201.361 40.8963C201.309 40.089 201.283 39.2556 201.283 38.3963V26.9119H198.471V23.7478H201.283V20.74L206.049 15.8181ZM218.197 44.2166H213.353V19.3338C213.353 18.5525 213.288 18.0317 213.158 17.7713C213.028 17.4848 212.872 17.3025 212.689 17.2244C212.273 17.0681 211.947 16.9119 211.713 16.7556C211.478 16.5994 211.361 16.2999 211.361 15.8572C211.361 14.9718 211.908 14.5291 213.002 14.5291H216.517C217.637 14.5291 218.197 14.9588 218.197 15.8181V25.8963C218.484 25.5838 218.822 25.2843 219.213 24.9978C220.515 23.9562 221.973 23.4353 223.588 23.4353C225.463 23.4353 226.973 24.0734 228.119 25.3494C229.291 26.6254 229.877 28.7739 229.877 31.7947V44.2166H225.033V31.7166C225.033 29.8937 224.799 28.6827 224.33 28.0838C223.861 27.4588 223.314 27.1463 222.689 27.1463C221.596 27.1463 220.437 27.9015 219.213 29.4119C218.822 29.9067 218.484 30.5056 218.197 31.2088V44.2166ZM236.947 34.8806C237.051 36.4431 237.624 37.8754 238.666 39.1775C239.708 40.4536 241.062 41.1567 242.728 41.2869C243.301 41.339 243.913 41.326 244.564 41.2478C245.215 41.1437 245.853 40.9353 246.478 40.6228C247.26 40.2582 247.846 40.1541 248.236 40.3103C248.653 40.4405 248.965 40.714 249.174 41.1306C249.278 41.4692 249.265 41.8338 249.135 42.2244C249.03 42.589 248.796 42.8885 248.432 43.1228C247.728 43.5395 246.778 43.8911 245.58 44.1775C244.408 44.464 243.093 44.5681 241.635 44.49C238.9 44.3077 236.596 43.24 234.721 41.2869C232.846 39.3338 231.908 36.6385 231.908 33.201C231.908 30.128 232.754 27.7062 234.447 25.9353C236.14 24.1385 238.445 23.24 241.361 23.24C243.861 23.24 245.892 24.0603 247.455 25.701C249.017 27.3416 249.799 29.8416 249.799 33.201V34.8806H236.947ZM236.947 31.5994H244.916C244.916 29.8546 244.525 28.5655 243.744 27.7322C242.989 26.8728 242.155 26.4431 241.244 26.4431C240.202 26.4431 239.239 26.9249 238.353 27.8885C237.494 28.852 237.025 30.089 236.947 31.5994ZM276.869 34.0994C276.869 31.7036 276.452 29.8676 275.619 28.5916C274.812 27.2895 273.835 26.6385 272.689 26.6385C271.726 26.6385 270.879 27.1202 270.15 28.0838C269.421 29.0213 269.057 30.3103 269.057 31.951V35.6619C269.057 37.7713 269.434 39.2426 270.189 40.076C270.945 40.8832 271.791 41.2869 272.728 41.2869C273.744 41.2869 274.682 40.6749 275.541 39.451C276.426 38.227 276.869 36.4431 276.869 34.0994ZM269.017 24.6463C270.137 23.7088 271.57 23.24 273.314 23.24C276.075 23.24 278.171 24.2296 279.603 26.2088C281.036 28.1619 281.752 30.753 281.752 33.9822C281.752 36.977 280.997 39.477 279.486 41.4822C277.976 43.4874 275.801 44.49 272.963 44.49C271.01 44.49 269.486 43.9562 268.392 42.8885C267.767 43.7739 266.687 44.2166 265.15 44.2166H264.213V19.3338C264.213 18.5525 264.148 18.0187 264.017 17.7322C263.887 17.4457 263.718 17.2635 263.51 17.1853C263.067 17.0291 262.741 16.8859 262.533 16.7556C262.325 16.5994 262.221 16.2999 262.221 15.8572C262.221 14.9718 262.767 14.5291 263.861 14.5291H267.338C268.458 14.5291 269.017 14.9588 269.017 15.8181V24.6463ZM282.689 33.9041C282.689 30.7791 283.497 28.227 285.111 26.2478C286.752 24.2426 289.122 23.24 292.221 23.24C295.346 23.24 297.728 24.2426 299.369 26.2478C301.01 28.227 301.83 30.7791 301.83 33.9041C301.83 37.003 301.01 39.5421 299.369 41.5213C297.728 43.5004 295.346 44.49 292.221 44.49C289.122 44.49 286.752 43.5004 285.111 41.5213C283.497 39.5421 282.689 37.003 282.689 33.9041ZM287.806 33.9041C287.806 36.4562 288.262 38.3312 289.174 39.5291C290.085 40.701 291.101 41.2869 292.221 41.2869C293.366 41.2869 294.395 40.701 295.306 39.5291C296.244 38.3312 296.713 36.4562 296.713 33.9041C296.713 31.326 296.244 29.4379 295.306 28.24C294.395 27.0421 293.366 26.4431 292.221 26.4431C291.101 26.4431 290.085 27.0421 289.174 28.24C288.262 29.4379 287.806 31.326 287.806 33.9041ZM309.642 15.8181V23.7478H314.916V26.9119H309.681V39.0213C309.681 39.9588 309.838 40.5707 310.15 40.8572C310.489 41.1437 310.997 41.2869 311.674 41.2869C312.038 41.2869 312.39 41.2869 312.728 41.2869C313.093 41.2609 313.939 41.0786 315.267 40.74V44.0213C314.382 44.3077 313.523 44.477 312.689 44.5291C311.882 44.5812 311.257 44.6072 310.814 44.6072C309.486 44.6072 308.392 44.464 307.533 44.1775C306.674 43.865 306.062 43.4223 305.697 42.8494C305.28 42.3286 305.033 41.6775 304.955 40.8963C304.903 40.089 304.877 39.2556 304.877 38.3963V26.9119H302.064V23.7478H304.877V20.74L309.642 15.8181ZM334.369 15.8181V23.7478H339.642V26.9119H334.408V39.0213C334.408 39.9588 334.564 40.5707 334.877 40.8572C335.215 41.1437 335.723 41.2869 336.4 41.2869C336.765 41.2869 337.116 41.2869 337.455 41.2869C337.82 41.2609 338.666 41.0786 339.994 40.74V44.0213C339.109 44.3077 338.249 44.477 337.416 44.5291C336.609 44.5812 335.984 44.6072 335.541 44.6072C334.213 44.6072 333.119 44.464 332.26 44.1775C331.4 43.865 330.788 43.4223 330.424 42.8494C330.007 42.3286 329.76 41.6775 329.681 40.8963C329.629 40.089 329.603 39.2556 329.603 38.3963V26.9119H326.791V23.7478H329.603V20.74L334.369 15.8181ZM340.15 33.9041C340.15 30.7791 340.958 28.227 342.572 26.2478C344.213 24.2426 346.583 23.24 349.681 23.24C352.806 23.24 355.189 24.2426 356.83 26.2478C358.471 28.227 359.291 30.7791 359.291 33.9041C359.291 37.003 358.471 39.5421 356.83 41.5213C355.189 43.5004 352.806 44.49 349.681 44.49C346.583 44.49 344.213 43.5004 342.572 41.5213C340.958 39.5421 340.15 37.003 340.15 33.9041ZM345.267 33.9041C345.267 36.4562 345.723 38.3312 346.635 39.5291C347.546 40.701 348.562 41.2869 349.681 41.2869C350.827 41.2869 351.856 40.701 352.767 39.5291C353.705 38.3312 354.174 36.4562 354.174 33.9041C354.174 31.326 353.705 29.4379 352.767 28.24C351.856 27.0421 350.827 26.4431 349.681 26.4431C348.562 26.4431 347.546 27.0421 346.635 28.24C345.723 29.4379 345.267 31.326 345.267 33.9041ZM42.9628 84.2166H38.119V59.3338C38.119 58.5265 38.0669 57.9926 37.9628 57.7322C37.8586 57.4457 37.7023 57.2635 37.494 57.1853C37.1294 57.0812 36.7909 56.951 36.4784 56.7947C36.1659 56.6124 36.0096 56.2739 36.0096 55.7791C36.0096 54.9457 36.5565 54.5291 37.6503 54.5291H41.2831C42.4029 54.5291 42.9628 54.9588 42.9628 55.8181V70.1541L49.1737 63.7478H54.7596L45.8143 72.4978L55.5018 84.2166H49.8768L42.9628 75.5447V84.2166ZM60.7362 84.2166H55.9706V68.5525C55.9706 67.7192 55.9185 67.1853 55.8143 66.951C55.7362 66.6905 55.593 66.5213 55.3846 66.4431C54.9159 66.2609 54.5383 66.0916 54.2518 65.9353C53.9654 65.7791 53.8221 65.4666 53.8221 64.9978C53.8221 64.1645 54.369 63.7478 55.4628 63.7478H59.0565C60.1763 63.7478 60.7362 64.2166 60.7362 65.1541V65.8572C61.0226 65.5447 61.3612 65.2452 61.7518 64.9588C62.9758 63.9431 64.4471 63.4353 66.1659 63.4353C68.0409 63.4353 69.5513 64.0734 70.6971 65.3494C71.869 66.6254 72.4549 68.7739 72.4549 71.7947V84.2166H67.6112V71.7166C67.6112 69.8937 67.3768 68.6827 66.9081 68.0838C66.4393 67.4588 65.9185 67.1463 65.3456 67.1463C64.1737 67.1723 63.0148 67.9145 61.869 69.3728C61.4263 69.9457 61.0487 70.5968 60.7362 71.326V84.2166ZM74.4081 73.9041C74.4081 70.7791 75.2154 68.227 76.8299 66.2478C78.4706 64.2426 80.8404 63.24 83.9393 63.24C87.0643 63.24 89.4471 64.2426 91.0878 66.2478C92.7284 68.227 93.5487 70.7791 93.5487 73.9041C93.5487 77.003 92.7284 79.5421 91.0878 81.5213C89.4471 83.5004 87.0643 84.49 83.9393 84.49C80.8404 84.49 78.4706 83.5004 76.8299 81.5213C75.2154 79.5421 74.4081 77.003 74.4081 73.9041ZM79.5253 73.9041C79.5253 76.4562 79.981 78.3312 80.8924 79.5291C81.8039 80.701 82.8195 81.2869 83.9393 81.2869C85.0851 81.2869 86.1138 80.701 87.0253 79.5291C87.9628 78.3312 88.4315 76.4562 88.4315 73.9041C88.4315 71.326 87.9628 69.4379 87.0253 68.24C86.1138 67.0421 85.0851 66.4431 83.9393 66.4431C82.8195 66.4431 81.8039 67.0421 80.8924 68.24C79.981 69.4379 79.5253 71.326 79.5253 73.9041ZM114.096 84.3338H110.267L106.596 72.1463L103.275 84.3338H99.4471L95.0721 67.4978C94.9419 67.1072 94.8247 66.7947 94.7206 66.5603C94.6424 66.2999 94.5253 66.1306 94.369 66.0525C94.1346 65.9223 93.9133 65.7791 93.7049 65.6228C93.4966 65.4666 93.3924 65.2192 93.3924 64.8806C93.3924 64.1254 93.9263 63.7478 94.994 63.7478H98.9003L101.557 75.6228L104.486 63.9431H108.9L112.103 75.701L114.994 63.7478H117.611C118.132 63.7478 118.51 63.8911 118.744 64.1775C119.004 64.464 119.109 64.8546 119.057 65.3494L114.096 84.3338ZM137.611 84.2166H132.767V59.3338C132.767 58.5525 132.702 58.0317 132.572 57.7713C132.442 57.4848 132.286 57.3025 132.103 57.2244C131.687 57.0681 131.361 56.9119 131.127 56.7556C130.892 56.5994 130.775 56.2999 130.775 55.8572C130.775 54.9718 131.322 54.5291 132.416 54.5291H135.932C137.051 54.5291 137.611 54.9588 137.611 55.8181V65.8963C137.898 65.5838 138.236 65.2843 138.627 64.9978C139.929 63.9562 141.387 63.4353 143.002 63.4353C144.877 63.4353 146.387 64.0734 147.533 65.3494C148.705 66.6254 149.291 68.7739 149.291 71.7947V84.2166H144.447V71.7166C144.447 69.8937 144.213 68.6827 143.744 68.0838C143.275 67.4588 142.728 67.1463 142.103 67.1463C141.01 67.1463 139.851 67.9015 138.627 69.4119C138.236 69.9067 137.898 70.5056 137.611 71.2088V84.2166ZM151.244 73.9041C151.244 70.7791 152.051 68.227 153.666 66.2478C155.307 64.2426 157.676 63.24 160.775 63.24C163.9 63.24 166.283 64.2426 167.924 66.2478C169.564 68.227 170.385 70.7791 170.385 73.9041C170.385 77.003 169.564 79.5421 167.924 81.5213C166.283 83.5004 163.9 84.49 160.775 84.49C157.676 84.49 155.307 83.5004 153.666 81.5213C152.051 79.5421 151.244 77.003 151.244 73.9041ZM156.361 73.9041C156.361 76.4562 156.817 78.3312 157.728 79.5291C158.64 80.701 159.655 81.2869 160.775 81.2869C161.921 81.2869 162.95 80.701 163.861 79.5291C164.799 78.3312 165.267 76.4562 165.267 73.9041C165.267 71.326 164.799 69.4379 163.861 68.24C162.95 67.0421 161.921 66.4431 160.775 66.4431C159.655 66.4431 158.64 67.0421 157.728 68.24C156.817 69.4379 156.361 71.326 156.361 73.9041ZM190.932 84.3338H187.103L183.432 72.1463L180.111 84.3338H176.283L171.908 67.4978C171.778 67.1072 171.661 66.7947 171.557 66.5603C171.478 66.2999 171.361 66.1306 171.205 66.0525C170.971 65.9223 170.749 65.7791 170.541 65.6228C170.333 65.4666 170.228 65.2192 170.228 64.8806C170.228 64.1254 170.762 63.7478 171.83 63.7478H175.736L178.392 75.6228L181.322 63.9431H185.736L188.939 75.701L191.83 63.7478H194.447C194.968 63.7478 195.346 63.8911 195.58 64.1775C195.84 64.464 195.945 64.8546 195.892 65.3494L190.932 84.3338ZM215.033 55.8181V63.7478H220.307V66.9119H215.072V79.0213C215.072 79.9588 215.228 80.5707 215.541 80.8572C215.879 81.1437 216.387 81.2869 217.064 81.2869C217.429 81.2869 217.78 81.2869 218.119 81.2869C218.484 81.2609 219.33 81.0786 220.658 80.74V84.0213C219.773 84.3077 218.913 84.477 218.08 84.5291C217.273 84.5812 216.648 84.6072 216.205 84.6072C214.877 84.6072 213.783 84.464 212.924 84.1775C212.064 83.865 211.452 83.4223 211.088 82.8494C210.671 82.3286 210.424 81.6775 210.346 80.8963C210.293 80.089 210.267 79.2556 210.267 78.3963V66.9119H207.455V63.7478H210.267V60.74L215.033 55.8181ZM220.814 73.9041C220.814 70.7791 221.622 68.227 223.236 66.2478C224.877 64.2426 227.247 63.24 230.346 63.24C233.471 63.24 235.853 64.2426 237.494 66.2478C239.135 68.227 239.955 70.7791 239.955 73.9041C239.955 77.003 239.135 79.5421 237.494 81.5213C235.853 83.5004 233.471 84.49 230.346 84.49C227.247 84.49 224.877 83.5004 223.236 81.5213C221.622 79.5421 220.814 77.003 220.814 73.9041ZM225.932 73.9041C225.932 76.4562 226.387 78.3312 227.299 79.5291C228.21 80.701 229.226 81.2869 230.346 81.2869C231.491 81.2869 232.52 80.701 233.432 79.5291C234.369 78.3312 234.838 76.4562 234.838 73.9041C234.838 71.326 234.369 69.4379 233.432 68.24C232.52 67.0421 231.491 66.4431 230.346 66.4431C229.226 66.4431 228.21 67.0421 227.299 68.24C226.387 69.4379 225.932 71.326 225.932 73.9041ZM254.33 68.5525C254.33 67.7452 254.265 67.2114 254.135 66.951C254.004 66.6645 253.848 66.4692 253.666 66.365C253.249 66.2348 252.924 66.0786 252.689 65.8963C252.455 65.714 252.338 65.4275 252.338 65.0369C252.338 64.1775 252.885 63.7478 253.978 63.7478H257.455C258.445 63.7478 258.991 64.0734 259.096 64.7244C260.215 63.7348 261.661 63.24 263.432 63.24C266.192 63.24 268.288 64.2296 269.721 66.2088C271.153 68.1619 271.869 70.753 271.869 73.9822C271.869 76.977 271.114 79.477 269.603 81.4822C268.093 83.4874 265.918 84.49 263.08 84.49C261.465 84.49 260.15 84.1124 259.135 83.3572V90.8963H254.33V68.5525ZM266.986 74.0994C266.986 71.7036 266.57 69.8676 265.736 68.5916C264.929 67.2895 263.952 66.6385 262.807 66.6385C261.843 66.6385 260.997 67.1202 260.267 68.0838C259.538 69.0213 259.174 70.3103 259.174 71.951V75.6619C259.174 77.6931 259.525 79.1385 260.228 79.9978C260.958 80.8572 261.83 81.2869 262.846 81.2869C263.835 81.2869 264.773 80.6749 265.658 79.451C266.543 78.227 266.986 76.4431 266.986 74.0994ZM279.525 84.2166H274.642V59.3338C274.642 58.5265 274.577 57.9926 274.447 57.7322C274.343 57.4457 274.187 57.2635 273.978 57.1853C273.562 57.0291 273.223 56.8728 272.963 56.7166C272.728 56.5343 272.611 56.2088 272.611 55.74C272.611 54.9327 273.171 54.5291 274.291 54.5291H277.846C278.965 54.5291 279.525 54.9588 279.525 55.8181V84.2166ZM294.174 82.8494C293.835 83.1098 293.236 83.4484 292.377 83.865C291.517 84.2817 290.306 84.49 288.744 84.49C286.895 84.49 285.372 83.9562 284.174 82.8885C282.976 81.7947 282.377 80.4015 282.377 78.7088C282.377 76.4171 283.392 74.5812 285.424 73.201C287.481 71.8207 289.968 71.1306 292.885 71.1306H294.135V70.3103C294.135 69.1124 293.796 68.1749 293.119 67.4978C292.442 66.7947 291.635 66.4431 290.697 66.4431C289.864 66.4431 289.148 66.6645 288.549 67.1072C287.976 67.5499 287.689 68.4093 287.689 69.6853H282.611C282.611 67.628 283.353 66.0395 284.838 64.9197C286.322 63.7999 288.314 63.24 290.814 63.24C293.471 63.24 295.489 63.9041 296.869 65.2322C298.275 66.5343 298.978 68.2921 298.978 70.5056V84.2166H294.174V82.8494ZM294.135 74.451C292.025 74.3989 290.346 74.7244 289.096 75.4275C287.846 76.1306 287.221 77.0942 287.221 78.3181C287.221 79.3598 287.468 80.076 287.963 80.4666C288.458 80.8312 289.017 81.0135 289.642 81.0135C290.736 81.0135 291.752 80.6098 292.689 79.8025C293.653 78.9952 294.135 78.0187 294.135 76.8728V74.451ZM303.392 90.74C301.96 90.5056 300.866 89.8806 300.111 88.865C299.356 87.8754 298.978 86.4171 298.978 84.49H303.627C303.627 85.3494 303.653 85.9484 303.705 86.2869C303.783 86.6515 303.874 86.9119 303.978 87.0681C304.161 87.3286 304.369 87.4718 304.603 87.4978C304.864 87.5239 305.033 87.5369 305.111 87.5369C305.398 87.5109 305.671 87.2765 305.931 86.8338C306.192 86.3911 306.478 85.6879 306.791 84.7244L307.494 82.5369L302.299 69.1385C302.038 68.3051 301.778 67.615 301.517 67.0681C301.283 66.4952 301.075 66.1827 300.892 66.1306C300.528 66.0265 300.241 65.8832 300.033 65.701C299.799 65.4926 299.681 65.2192 299.681 64.8806C299.681 64.1254 300.241 63.7478 301.361 63.7478H305.502L309.838 75.6619L313.822 63.7478H316.635C317.234 63.7478 317.637 63.9431 317.846 64.3338C318.08 64.7244 318.145 65.1411 318.041 65.5838L311.01 85.6619C310.176 88.0838 309.096 89.6072 307.767 90.2322C306.465 90.8832 305.007 91.0525 303.392 90.74ZM336.635 55.8181V63.7478H341.908V66.9119H336.674V79.0213C336.674 79.9588 336.83 80.5707 337.142 80.8572C337.481 81.1437 337.989 81.2869 338.666 81.2869C339.03 81.2869 339.382 81.2869 339.721 81.2869C340.085 81.2609 340.931 81.0786 342.26 80.74V84.0213C341.374 84.3077 340.515 84.477 339.681 84.5291C338.874 84.5812 338.249 84.6072 337.806 84.6072C336.478 84.6072 335.385 84.464 334.525 84.1775C333.666 83.865 333.054 83.4223 332.689 82.8494C332.273 82.3286 332.025 81.6775 331.947 80.8963C331.895 80.089 331.869 79.2556 331.869 78.3963V66.9119H329.056V63.7478H331.869V60.74L336.635 55.8181ZM348.783 84.2166H343.939V59.3338C343.939 58.5525 343.874 58.0317 343.744 57.7713C343.614 57.4848 343.458 57.3025 343.275 57.2244C342.859 57.0681 342.533 56.9119 342.299 56.7556C342.064 56.5994 341.947 56.2999 341.947 55.8572C341.947 54.9718 342.494 54.5291 343.588 54.5291H347.103C348.223 54.5291 348.783 54.9588 348.783 55.8181V65.8963C349.07 65.5838 349.408 65.2843 349.799 64.9978C351.101 63.9562 352.559 63.4353 354.174 63.4353C356.049 63.4353 357.559 64.0734 358.705 65.3494C359.877 66.6254 360.463 68.7739 360.463 71.7947V84.2166H355.619V71.7166C355.619 69.8937 355.385 68.6827 354.916 68.0838C354.447 67.4588 353.9 67.1463 353.275 67.1463C352.181 67.1463 351.023 67.9015 349.799 69.4119C349.408 69.9067 349.07 70.5056 348.783 71.2088V84.2166ZM367.533 74.8806C367.637 76.4431 368.21 77.8754 369.252 79.1775C370.293 80.4536 371.648 81.1567 373.314 81.2869C373.887 81.339 374.499 81.326 375.15 81.2478C375.801 81.1437 376.439 80.9353 377.064 80.6228C377.846 80.2582 378.431 80.1541 378.822 80.3103C379.239 80.4405 379.551 80.714 379.76 81.1306C379.864 81.4692 379.851 81.8338 379.721 82.2244C379.616 82.589 379.382 82.8885 379.017 83.1228C378.314 83.5395 377.364 83.8911 376.166 84.1775C374.994 84.464 373.679 84.5681 372.221 84.49C369.486 84.3077 367.181 83.24 365.306 81.2869C363.431 79.3338 362.494 76.6385 362.494 73.201C362.494 70.128 363.34 67.7062 365.033 65.9353C366.726 64.1385 369.03 63.24 371.947 63.24C374.447 63.24 376.478 64.0603 378.041 65.701C379.603 67.3416 380.385 69.8416 380.385 73.201V74.8806H367.533ZM367.533 71.5994H375.502C375.502 69.8546 375.111 68.5655 374.33 67.7322C373.575 66.8728 372.741 66.4431 371.83 66.4431C370.788 66.4431 369.825 66.9249 368.939 67.8885C368.08 68.852 367.611 70.089 367.533 71.5994ZM183.197 110.232V122.068C181.192 123.448 178.64 124.23 175.541 124.412C172.468 124.594 169.89 124.06 167.807 122.81C165.879 121.638 164.304 119.959 163.08 117.771C161.882 115.584 161.27 112.849 161.244 109.568C161.244 105.219 162.299 101.691 164.408 98.9822C166.517 96.2739 169.655 94.9197 173.822 94.9197C176.504 94.9197 178.744 95.6359 180.541 97.0681C182.364 98.5004 183.275 100.193 183.275 102.146H178.08C178.028 100.948 177.559 100.024 176.674 99.3728C175.814 98.7218 174.799 98.3963 173.627 98.3963C171.83 98.3963 170.163 99.2817 168.627 101.053C167.116 102.797 166.361 105.428 166.361 108.943C166.361 112.771 167.168 115.701 168.783 117.732C170.398 119.737 172.377 120.792 174.721 120.896C175.215 120.896 175.788 120.87 176.439 120.818C177.116 120.766 177.728 120.649 178.275 120.467V114.685C178.275 113.305 178.028 112.459 177.533 112.146C177.064 111.808 176.166 111.625 174.838 111.599C174.057 111.599 173.666 111.144 173.666 110.232C173.666 109.295 173.965 108.826 174.564 108.826H181.713C182.702 108.826 183.197 109.295 183.197 110.232ZM201.478 124.217L198.627 115.232H191.01L188.197 124.217H183.471L191.049 100.662C191.465 99.3598 191.622 98.6306 191.517 98.4744C191.439 98.2921 191.27 98.1749 191.01 98.1228C190.437 97.9666 190.02 97.7973 189.76 97.615C189.499 97.4067 189.369 97.0681 189.369 96.5994C189.369 95.8181 189.89 95.4275 190.932 95.4275H197.142L206.674 124.217H201.478ZM197.533 111.873L194.76 103.162L192.064 111.873H197.533ZM214.603 95.4275L220.541 116.756L226.83 95.4666L233.432 95.4275V124.217H228.822V104.373L223.158 122.381C222.95 123.032 222.65 123.5 222.26 123.787C221.869 124.073 221.361 124.217 220.736 124.217H218.08L212.572 103.748V124.217H208.236V100.193C208.236 99.3859 208.184 98.865 208.08 98.6306C207.976 98.3702 207.807 98.201 207.572 98.1228C207.129 97.9405 206.791 97.7582 206.557 97.576C206.322 97.3937 206.205 97.1202 206.205 96.7556C206.205 95.8702 206.765 95.4275 207.885 95.4275H214.603ZM242.846 107.693H246.674C247.898 107.693 248.744 107.537 249.213 107.224C249.682 106.912 249.916 106.326 249.916 105.467C249.916 104.972 250.437 104.724 251.478 104.724C252.52 104.724 253.041 104.972 253.041 105.467V113.279C253.041 113.722 252.52 113.943 251.478 113.943C250.437 113.943 249.916 113.722 249.916 113.279C249.916 112.394 249.668 111.769 249.174 111.404C248.679 111.039 247.833 110.857 246.635 110.857H242.846V119.607C242.846 120.519 243.34 120.974 244.33 120.974H249.057C250.072 120.974 250.736 120.74 251.049 120.271C251.387 119.776 251.622 119.23 251.752 118.631C251.908 117.771 252.52 117.407 253.588 117.537C254.655 117.641 255.189 118.058 255.189 118.787L254.916 124.217H237.924V100.232C237.924 99.3989 237.859 98.865 237.728 98.6306C237.598 98.3702 237.416 98.201 237.182 98.1228C236.739 97.9666 236.387 97.7973 236.127 97.615C235.866 97.4067 235.736 97.0812 235.736 96.6385C235.736 95.8312 236.192 95.4275 237.103 95.4275H254.291L254.525 100.545C254.525 101.378 253.978 101.808 252.885 101.834C251.791 101.86 251.218 101.443 251.166 100.584C251.088 100.167 250.879 99.7504 250.541 99.3338C250.228 98.8911 249.525 98.6697 248.432 98.6697H244.252C243.314 98.6697 242.846 99.1385 242.846 100.076V107.693Z" fill="black"/>
</g>
<defs>
<filter id="filter0_d" x="0" y="0" width="419" height="150" filterUnits="userSpaceOnUse" color-interpolation-filters="sRGB">
<feFlood flood-opacity="0" result="BackgroundImageFix"/>
<feColorMatrix in="SourceAlpha" type="matrix" values="0 0 0 0 0 0 0 0 0 0 0 0 0 0 0 0 0 0 127 0"/>
<feOffset dy="10"/>
<feGaussianBlur stdDeviation="2"/>
<feColorMatrix type="matrix" values="0 0 0 0 0 0 0 0 0 0 0 0 0 0 0 0 0 0 0.25 0"/>
<feBlend mode="normal" in2="BackgroundImageFix" result="effect1_dropShadow"/>
<feBlend mode="normal" in="SourceGraphic" in2="effect1_dropShadow" result="shape"/>
</filter>
</defs>
</svg>
