<svg width="813" height="90" viewBox="0 0 813 90" fill="none" xmlns="http://www.w3.org/2000/svg">
<path d="M0 0H813V90H0V0Z" fill="#FC7EEF"/>
<g filter="url(#filter0_d)">
<path d="M37.928 19.2V59.136H52.2V64H32.36V19.2H37.928ZM87.5305 19.2V23.872H71.7225V38.528H85.9305V43.2H71.7225V59.328H87.5305V64H66.1545V19.2H87.5305ZM108.589 64V24.064H98.413V19.2H124.333V24.064H114.157V64H108.589ZM143.856 24.96V19.2H149.936V24.96L146.416 35.008H141.936L143.856 24.96ZM191.346 53.12C191.346 56.7467 190.343 59.4773 188.338 61.312C186.375 63.104 183.538 64 179.826 64H170.738V59.136H180.466C182.045 59.136 183.325 58.6667 184.306 57.728C185.287 56.7893 185.778 55.6587 185.778 54.336V47.68C185.778 46.4 185.437 45.376 184.754 44.608C184.114 43.7973 183.133 43.392 181.81 43.392H179.89C176.733 43.392 174.237 42.4747 172.402 40.64C170.567 38.7627 169.65 36.0533 169.65 32.512V30.08C169.65 26.4533 170.631 23.744 172.594 21.952C174.599 20.1173 177.458 19.2 181.17 19.2H190.322V24.064H180.53C178.951 24.064 177.671 24.5333 176.69 25.472C175.709 26.4107 175.218 27.5413 175.218 28.864V33.728C175.218 35.0507 175.645 36.16 176.498 37.056C177.351 37.9093 178.461 38.336 179.826 38.336H181.746C184.775 38.336 187.122 39.2107 188.786 40.96C190.493 42.7093 191.346 45.3547 191.346 48.896V53.12ZM261.239 36.48C261.239 39.936 260.322 42.496 258.487 44.16C256.652 45.7813 253.943 46.592 250.359 46.592H243.703V64H238.135V19.2H250.231C253.858 19.2 256.588 20.0107 258.423 21.632C260.3 23.2107 261.239 25.728 261.239 29.184V36.48ZM255.671 28.608C255.671 26.9867 255.287 25.8133 254.519 25.088C253.794 24.3627 252.62 24 250.999 24H243.703V41.792H250.999C252.62 41.792 253.794 41.4293 254.519 40.704C255.287 39.936 255.671 38.7413 255.671 37.12V28.608ZM279.866 19.2V59.136H294.138V64H274.298V19.2H279.866ZM312.572 52.672L310.076 64H304.38L315.196 19.2H322.556L333.18 64H327.484L325.052 52.672H312.572ZM324.028 47.872L318.78 23.424L313.596 47.872H324.028ZM350.335 64V43.2L338.879 19.2H345.023L353.471 37.824L361.919 19.2H367.743L356.095 43.2V64H350.335ZM419.652 64V24.064H409.476V19.2H435.396V24.064H425.22V64H419.652ZM450.438 43.392V64H444.87V19.2H450.438V38.656H463.622V19.2H469.19V64H463.622V43.392H450.438ZM502.281 19.2V23.872H486.473V38.528H500.681V43.2H486.473V59.328H502.281V64H480.905V19.2H502.281ZM560.974 64C557.262 64 554.403 63.104 552.398 61.312C550.435 59.4773 549.454 56.7467 549.454 53.12V30.08C549.454 26.4533 550.435 23.744 552.398 21.952C554.403 20.1173 557.262 19.2 560.974 19.2H569.998V24.064H560.333C558.755 24.064 557.475 24.5333 556.494 25.472C555.512 26.4107 555.022 27.5413 555.022 28.864V54.336C555.022 55.6587 555.512 56.7893 556.494 57.728C557.475 58.6667 558.755 59.136 560.333 59.136H566.606V45.248H561.038V40.448H571.918V64H560.974ZM589.072 52.672L586.576 64H580.88L591.696 19.2H599.056L609.68 64H603.984L601.552 52.672H589.072ZM600.528 47.872L595.28 23.424L590.096 47.872H600.528ZM632.403 48.96H627.091L620.819 23.808V64H615.955V19.2H624.851L629.971 42.112L635.155 19.2H643.795V64H638.803V23.808L632.403 48.96ZM675.093 19.2V23.872H659.285V38.528H673.493V43.2H659.285V59.328H675.093V64H653.717V19.2H675.093Z" fill="#E8EC43"/>
</g>
<g filter="url(#filter1_d)">
<path d="M790.543 42.1334C790.465 42.066 790.379 42.0037 790.285 41.9477L761.961 21.1161C761.104 20.45 759.658 20.4106 758.733 21.028C758.274 21.3341 758.01 21.7623 758.002 22.2126V33.1767H721.303C719.932 33.1767 718.41 33.396 718.41 34.2729V51.8154C718.591 52.9279 719.769 53.821 721.303 54.0082H758.002V63.8757C758.024 64.5318 758.553 65.1238 759.372 65.4106H760.286C760.922 65.3926 761.524 65.1957 761.961 64.8625L790.285 44.1405C791.126 43.6374 791.242 42.7388 790.543 42.1334Z" fill="#E8EC43"/>
<path d="M711.558 32.6283C710.296 32.6283 709.273 33.3647 709.273 34.273V51.8154C709.273 52.7237 710.296 53.4601 711.558 53.4601C712.819 53.4601 713.842 52.7237 713.842 51.8154V34.273C713.842 33.3645 712.819 32.6283 711.558 32.6283Z" fill="#E8EC43"/>
<path d="M702.421 32.6283C701.159 32.6283 700.137 33.3647 700.137 34.273V51.8154C700.137 52.7237 701.159 53.4601 702.421 53.4601C703.682 53.4601 704.705 52.7237 704.705 51.8154V34.273C704.705 33.3645 703.682 32.6283 702.421 32.6283Z" fill="#E8EC43"/>
<path d="M693.284 32.6283C692.023 32.6283 691 33.3647 691 34.273V51.8154C691 52.7237 692.023 53.4601 693.284 53.4601C694.546 53.4601 695.568 52.7237 695.568 51.8154V34.273C695.568 33.3645 694.546 32.6283 693.284 32.6283Z" fill="#E8EC43"/>
</g>
<defs>
<filter id="filter0_d" x="28.36" y="19.2" width="650.733" height="53.8" filterUnits="userSpaceOnUse" color-interpolation-filters="sRGB">
<feFlood flood-opacity="0" result="BackgroundImageFix"/>
<feColorMatrix in="SourceAlpha" type="matrix" values="0 0 0 0 0 0 0 0 0 0 0 0 0 0 0 0 0 0 127 0"/>
<feOffset dy="5"/>
<feGaussianBlur stdDeviation="2"/>
<feColorMatrix type="matrix" values="0 0 0 0 0 0 0 0 0 0 0 0 0 0 0 0 0 0 0.25 0"/>
<feBlend mode="normal" in2="BackgroundImageFix" result="effect1_dropShadow"/>
<feBlend mode="normal" in="SourceGraphic" in2="effect1_dropShadow" result="shape"/>
</filter>
<filter id="filter1_d" x="687" y="7" width="108" height="81" filterUnits="userSpaceOnUse" color-interpolation-filters="sRGB">
<feFlood flood-opacity="0" result="BackgroundImageFix"/>
<feColorMatrix in="SourceAlpha" type="matrix" values="0 0 0 0 0 0 0 0 0 0 0 0 0 0 0 0 0 0 127 0"/>
<feOffset dy="5"/>
<feGaussianBlur stdDeviation="2"/>
<feColorMatrix type="matrix" values="0 0 0 0 0 0 0 0 0 0 0 0 0 0 0 0 0 0 0.25 0"/>
<feBlend mode="normal" in2="BackgroundImageFix" result="effect1_dropShadow"/>
<feBlend mode="normal" in="SourceGraphic" in2="effect1_dropShadow" result="shape"/>
</filter>
</defs>
</svg>
